<?xml version="1.0" encoding="UTF-8"?>
<svg id="Layer_2" data-name="Layer 2" xmlns="http://www.w3.org/2000/svg" viewBox="0 0 94.36 91.07">
  <defs>
    <style>
      .cls-1 {
        fill: none;
        stroke: #000;
        stroke-linecap: round;
        stroke-linejoin: round;
        stroke-width: 7.92px;
      }

      .cls-2 {
        fill: #000;
        font-family: MadimiOne-Regular, 'Madimi One';
        font-size: 68.09px;
      }
    </style>
  </defs>
  <g id="Layer_1-2" data-name="Layer 1">
    <g>
      <path class="cls-1" d="M23.14,11.36c-3.56-2.47-7.12-4.93-10.68-7.4"/>
      <path class="cls-1" d="M16.84,23.41c-4.29-2.28-8.58-4.57-12.88-6.85"/>
      <path class="cls-1" d="M70.54,13.55c2.28-2.74,4.57-5.48,6.85-8.22"/>
      <path class="cls-1" d="M78.26,23.83c2.97-2.56,5.94-5.13,8.9-7.69"/>
      <path class="cls-1" d="M19.03,70.26c-3.47,1.55-6.94,3.1-10.41,4.66"/>
      <path class="cls-1" d="M25.6,79.03c-2.83,2.56-5.66,5.11-8.49,7.67"/>
      <path class="cls-1" d="M77.52,70.95c4.29.91,8.58,1.83,12.88,2.74"/>
      <path class="cls-1" d="M72.04,79.44c3.2,2.56,6.39,5.11,9.59,7.67"/>
    </g>
    <text class="cls-2" transform="translate(29.8 68.09)"><tspan x="0" y="0">S</tspan></text>
  </g>
</svg>