<?xml version="1.0" encoding="UTF-8"?>
<svg id="Layer_2" data-name="Layer 2" xmlns="http://www.w3.org/2000/svg" viewBox="0 0 99.67 96.19">
  <defs>
    <style>
      .cls-1 {
        fill: none;
        stroke: #000;
        stroke-linecap: round;
        stroke-linejoin: round;
        stroke-width: 8.14px;
      }
    </style>
  </defs>
  <g id="Layer_1-2" data-name="Layer 1">
    <g>
      <path class="cls-1" d="M59.77,23.51c-5.4-4.04-12.47-4.38-17.47-1.03-7.36,4.93-7.57,16.08-3.5,20.71,4.59,5.23,12.55-.21,20.1,5.27,6.39,4.63,10.02,15.29,6.09,21.47-4.03,6.35-16.42,8.56-27.56,1.16"/>
      <path class="cls-1" d="M24.38,11.9c-3.77-2.61-7.54-5.22-11.31-7.83"/>
      <path class="cls-1" d="M17.71,24.67c-4.55-2.42-9.09-4.84-13.64-7.25"/>
      <path class="cls-1" d="M74.57,14.22c2.42-2.9,4.84-5.8,7.25-8.7"/>
      <path class="cls-1" d="M82.75,25.11c3.14-2.71,6.29-5.43,9.43-8.14"/>
      <path class="cls-1" d="M20.03,74.28c-3.67,1.64-7.35,3.29-11.02,4.93"/>
      <path class="cls-1" d="M26.99,83.56c-3,2.71-6,5.42-8.99,8.12"/>
      <path class="cls-1" d="M81.97,75c4.55.97,9.09,1.93,13.64,2.9"/>
      <path class="cls-1" d="M76.16,84c3.38,2.71,6.77,5.42,10.15,8.12"/>
    </g>
  </g>
</svg>